<mxfile host="app.diagrams.net" agent="Mozilla/5.0 (Windows NT 10.0; Win64; x64) AppleWebKit/537.36 (KHTML, like Gecko) Chrome/139.0.0.0 Safari/537.36" version="28.1.0">
  <diagram id="YFnqXCVgjgQndv2L8l8i" name="Page-1">
    <mxGraphModel dx="872" dy="473" grid="1" gridSize="10" guides="1" tooltips="1" connect="1" arrows="1" fold="1" page="1" pageScale="1" pageWidth="850" pageHeight="1100" math="0" shadow="0">
      <root>
        <mxCell id="0" />
        <mxCell id="1" parent="0" />
        <mxCell id="lzKRI8cVJowjACNpVGW9-5" style="edgeStyle=orthogonalEdgeStyle;rounded=0;orthogonalLoop=1;jettySize=auto;html=1;exitX=0.5;exitY=1;exitDx=0;exitDy=0;entryX=0.5;entryY=0;entryDx=0;entryDy=0;" edge="1" parent="1" source="lzKRI8cVJowjACNpVGW9-1" target="lzKRI8cVJowjACNpVGW9-3">
          <mxGeometry relative="1" as="geometry" />
        </mxCell>
        <mxCell id="lzKRI8cVJowjACNpVGW9-1" value="&lt;font style=&quot;font-size: 11px;&quot;&gt;System ON&lt;/font&gt;" style="ellipse;whiteSpace=wrap;html=1;fillColor=#d5e8d4;strokeColor=#82b366;" vertex="1" parent="1">
          <mxGeometry x="350" y="10" width="100" height="70" as="geometry" />
        </mxCell>
        <mxCell id="lzKRI8cVJowjACNpVGW9-12" style="edgeStyle=orthogonalEdgeStyle;rounded=0;orthogonalLoop=1;jettySize=auto;html=1;exitX=0.5;exitY=1;exitDx=0;exitDy=0;entryX=0.5;entryY=0;entryDx=0;entryDy=0;" edge="1" parent="1" source="lzKRI8cVJowjACNpVGW9-3" target="lzKRI8cVJowjACNpVGW9-11">
          <mxGeometry relative="1" as="geometry" />
        </mxCell>
        <mxCell id="lzKRI8cVJowjACNpVGW9-41" style="edgeStyle=orthogonalEdgeStyle;rounded=0;orthogonalLoop=1;jettySize=auto;html=1;exitX=1;exitY=0.5;exitDx=0;exitDy=0;" edge="1" parent="1" source="lzKRI8cVJowjACNpVGW9-3" target="lzKRI8cVJowjACNpVGW9-6">
          <mxGeometry relative="1" as="geometry" />
        </mxCell>
        <mxCell id="lzKRI8cVJowjACNpVGW9-3" value="&lt;font style=&quot;font-size: 11px;&quot;&gt;Is it Feeding Time?&lt;/font&gt;" style="rhombus;whiteSpace=wrap;html=1;fillColor=#fff2cc;strokeColor=#d6b656;" vertex="1" parent="1">
          <mxGeometry x="328.75" y="120" width="142.5" height="80" as="geometry" />
        </mxCell>
        <mxCell id="lzKRI8cVJowjACNpVGW9-42" style="edgeStyle=orthogonalEdgeStyle;rounded=0;orthogonalLoop=1;jettySize=auto;html=1;exitX=0.5;exitY=0;exitDx=0;exitDy=0;" edge="1" parent="1" source="lzKRI8cVJowjACNpVGW9-6">
          <mxGeometry relative="1" as="geometry">
            <mxPoint x="400" y="98" as="targetPoint" />
            <mxPoint x="640" y="133" as="sourcePoint" />
            <Array as="points">
              <mxPoint x="640" y="98" />
            </Array>
          </mxGeometry>
        </mxCell>
        <mxCell id="lzKRI8cVJowjACNpVGW9-6" value="&lt;font style=&quot;font-size: 11px;&quot;&gt;Wait for next scheduled&lt;/font&gt;&lt;div&gt;&lt;font style=&quot;font-size: 11px;&quot;&gt;Feeding Time&lt;/font&gt;&lt;/div&gt;" style="rounded=0;whiteSpace=wrap;html=1;fillColor=#dae8fc;strokeColor=#6c8ebf;" vertex="1" parent="1">
          <mxGeometry x="550" y="135" width="180" height="50" as="geometry" />
        </mxCell>
        <mxCell id="lzKRI8cVJowjACNpVGW9-9" value="&lt;font style=&quot;font-size: 11px;&quot;&gt;No&lt;/font&gt;" style="text;html=1;align=center;verticalAlign=middle;whiteSpace=wrap;rounded=0;" vertex="1" parent="1">
          <mxGeometry x="475" y="130" width="60" height="30" as="geometry" />
        </mxCell>
        <mxCell id="lzKRI8cVJowjACNpVGW9-14" style="edgeStyle=orthogonalEdgeStyle;rounded=0;orthogonalLoop=1;jettySize=auto;html=1;exitX=1;exitY=0.5;exitDx=0;exitDy=0;" edge="1" parent="1" source="lzKRI8cVJowjACNpVGW9-11">
          <mxGeometry relative="1" as="geometry">
            <mxPoint x="550" y="280" as="targetPoint" />
          </mxGeometry>
        </mxCell>
        <mxCell id="lzKRI8cVJowjACNpVGW9-21" style="edgeStyle=orthogonalEdgeStyle;rounded=0;orthogonalLoop=1;jettySize=auto;html=1;exitX=0;exitY=0.5;exitDx=0;exitDy=0;entryX=1;entryY=0.5;entryDx=0;entryDy=0;" edge="1" parent="1" source="lzKRI8cVJowjACNpVGW9-11" target="lzKRI8cVJowjACNpVGW9-20">
          <mxGeometry relative="1" as="geometry" />
        </mxCell>
        <mxCell id="lzKRI8cVJowjACNpVGW9-11" value="&lt;font style=&quot;font-size: 11px;&quot;&gt;Is the Food Storage&lt;/font&gt;&lt;div&gt;&lt;font style=&quot;font-size: 11px;&quot;&gt;level above 15 cm?&lt;/font&gt;&lt;/div&gt;" style="rhombus;whiteSpace=wrap;html=1;fillColor=#fff2cc;strokeColor=#d6b656;" vertex="1" parent="1">
          <mxGeometry x="325" y="240" width="150" height="80" as="geometry" />
        </mxCell>
        <mxCell id="lzKRI8cVJowjACNpVGW9-13" value="&lt;font style=&quot;font-size: 11px;&quot;&gt;Yes&lt;/font&gt;" style="text;html=1;align=center;verticalAlign=middle;whiteSpace=wrap;rounded=0;" vertex="1" parent="1">
          <mxGeometry x="395" y="200" width="60" height="30" as="geometry" />
        </mxCell>
        <mxCell id="lzKRI8cVJowjACNpVGW9-35" style="edgeStyle=orthogonalEdgeStyle;rounded=0;orthogonalLoop=1;jettySize=auto;html=1;exitX=0.5;exitY=0;exitDx=0;exitDy=0;entryX=0.5;entryY=1;entryDx=0;entryDy=0;" edge="1" parent="1" source="lzKRI8cVJowjACNpVGW9-15" target="lzKRI8cVJowjACNpVGW9-6">
          <mxGeometry relative="1" as="geometry" />
        </mxCell>
        <mxCell id="lzKRI8cVJowjACNpVGW9-15" value="&lt;font style=&quot;font-size: 11px;&quot;&gt;Send SMS alert&lt;/font&gt;&lt;div&gt;&lt;font style=&quot;font-size: 11px;&quot;&gt;with the message&amp;nbsp;&lt;/font&gt;&lt;/div&gt;&lt;div&gt;&lt;font style=&quot;font-size: 11px;&quot;&gt;&#39;Food Level low. Please fill tank.&#39;&lt;/font&gt;&lt;/div&gt;" style="rounded=0;whiteSpace=wrap;html=1;fillColor=#dae8fc;strokeColor=#6c8ebf;" vertex="1" parent="1">
          <mxGeometry x="550" y="250" width="180" height="60" as="geometry" />
        </mxCell>
        <mxCell id="lzKRI8cVJowjACNpVGW9-18" value="&lt;span style=&quot;font-size: 11px;&quot;&gt;No&lt;/span&gt;" style="text;html=1;align=center;verticalAlign=middle;whiteSpace=wrap;rounded=0;" vertex="1" parent="1">
          <mxGeometry x="480" y="250" width="60" height="30" as="geometry" />
        </mxCell>
        <mxCell id="lzKRI8cVJowjACNpVGW9-24" style="edgeStyle=orthogonalEdgeStyle;rounded=0;orthogonalLoop=1;jettySize=auto;html=1;exitX=0.5;exitY=1;exitDx=0;exitDy=0;entryX=0.5;entryY=0;entryDx=0;entryDy=0;" edge="1" parent="1" source="lzKRI8cVJowjACNpVGW9-20" target="lzKRI8cVJowjACNpVGW9-23">
          <mxGeometry relative="1" as="geometry">
            <mxPoint x="185" y="350" as="targetPoint" />
          </mxGeometry>
        </mxCell>
        <mxCell id="lzKRI8cVJowjACNpVGW9-20" value="&lt;font style=&quot;font-size: 11px;&quot;&gt;Open Servo Motor to dispense food&lt;/font&gt;" style="rounded=0;whiteSpace=wrap;html=1;fillColor=#dae8fc;strokeColor=#6c8ebf;" vertex="1" parent="1">
          <mxGeometry x="120" y="250" width="130" height="60" as="geometry" />
        </mxCell>
        <mxCell id="lzKRI8cVJowjACNpVGW9-22" value="&lt;font style=&quot;font-size: 11px;&quot;&gt;Yes&lt;/font&gt;" style="text;html=1;align=center;verticalAlign=middle;whiteSpace=wrap;rounded=0;" vertex="1" parent="1">
          <mxGeometry x="265" y="250" width="60" height="30" as="geometry" />
        </mxCell>
        <mxCell id="lzKRI8cVJowjACNpVGW9-27" style="edgeStyle=orthogonalEdgeStyle;rounded=0;orthogonalLoop=1;jettySize=auto;html=1;entryX=0;entryY=0.5;entryDx=0;entryDy=0;" edge="1" parent="1" source="lzKRI8cVJowjACNpVGW9-23" target="lzKRI8cVJowjACNpVGW9-25">
          <mxGeometry relative="1" as="geometry" />
        </mxCell>
        <mxCell id="lzKRI8cVJowjACNpVGW9-23" value="&lt;font style=&quot;font-size: 11px;&quot;&gt;Wait 10 minutes&lt;/font&gt;" style="rounded=0;whiteSpace=wrap;html=1;fillColor=#dae8fc;strokeColor=#6c8ebf;" vertex="1" parent="1">
          <mxGeometry x="120" y="370" width="130" height="60" as="geometry" />
        </mxCell>
        <mxCell id="lzKRI8cVJowjACNpVGW9-29" style="edgeStyle=orthogonalEdgeStyle;rounded=0;orthogonalLoop=1;jettySize=auto;html=1;exitX=1;exitY=0.5;exitDx=0;exitDy=0;" edge="1" parent="1" source="lzKRI8cVJowjACNpVGW9-25" target="lzKRI8cVJowjACNpVGW9-28">
          <mxGeometry relative="1" as="geometry" />
        </mxCell>
        <mxCell id="lzKRI8cVJowjACNpVGW9-45" style="edgeStyle=orthogonalEdgeStyle;rounded=0;orthogonalLoop=1;jettySize=auto;html=1;exitX=0.5;exitY=1;exitDx=0;exitDy=0;entryX=0.5;entryY=0;entryDx=0;entryDy=0;" edge="1" parent="1" source="lzKRI8cVJowjACNpVGW9-25" target="lzKRI8cVJowjACNpVGW9-44">
          <mxGeometry relative="1" as="geometry" />
        </mxCell>
        <mxCell id="lzKRI8cVJowjACNpVGW9-25" value="&lt;span style=&quot;font-size: 11px;&quot;&gt;Is the weight in the&lt;/span&gt;&lt;div&gt;&lt;span style=&quot;font-size: 11px;&quot;&gt;Food Bowl equal to or below&lt;/span&gt;&lt;/div&gt;&lt;div&gt;&lt;span style=&quot;font-size: 11px;&quot;&gt;150 grams?&lt;/span&gt;&lt;/div&gt;" style="rhombus;whiteSpace=wrap;html=1;fillColor=#fff2cc;strokeColor=#d6b656;" vertex="1" parent="1">
          <mxGeometry x="317.5" y="340" width="165" height="120" as="geometry" />
        </mxCell>
        <mxCell id="lzKRI8cVJowjACNpVGW9-50" style="edgeStyle=orthogonalEdgeStyle;rounded=0;orthogonalLoop=1;jettySize=auto;html=1;exitX=1;exitY=0.5;exitDx=0;exitDy=0;entryX=0;entryY=0.5;entryDx=0;entryDy=0;" edge="1" parent="1" source="lzKRI8cVJowjACNpVGW9-28" target="lzKRI8cVJowjACNpVGW9-49">
          <mxGeometry relative="1" as="geometry" />
        </mxCell>
        <mxCell id="lzKRI8cVJowjACNpVGW9-28" value="&lt;font style=&quot;font-size: 11px;&quot;&gt;Send SMS alert&amp;nbsp;&lt;/font&gt;&lt;span style=&quot;font-size: 11px; background-color: transparent; color: light-dark(rgb(0, 0, 0), rgb(255, 255, 255));&quot;&gt;with the message&amp;nbsp;&lt;/span&gt;&lt;div&gt;&lt;font style=&quot;font-size: 11px;&quot;&gt;&#39;Pet didn&#39;t eat sufficient amount of food. Pet monitoring advised&#39;&lt;/font&gt;&lt;/div&gt;" style="rounded=0;whiteSpace=wrap;html=1;fillColor=#dae8fc;strokeColor=#6c8ebf;" vertex="1" parent="1">
          <mxGeometry x="550" y="370" width="180" height="60" as="geometry" />
        </mxCell>
        <mxCell id="lzKRI8cVJowjACNpVGW9-30" value="&lt;span style=&quot;font-size: 11px;&quot;&gt;No&lt;/span&gt;" style="text;html=1;align=center;verticalAlign=middle;whiteSpace=wrap;rounded=0;" vertex="1" parent="1">
          <mxGeometry x="480.5" y="366" width="60" height="30" as="geometry" />
        </mxCell>
        <mxCell id="lzKRI8cVJowjACNpVGW9-31" value="&lt;font style=&quot;font-size: 11px;&quot;&gt;System OFF&lt;/font&gt;" style="ellipse;whiteSpace=wrap;html=1;fillColor=#f8cecc;strokeColor=#b85450;" vertex="1" parent="1">
          <mxGeometry x="350" y="650" width="100" height="70" as="geometry" />
        </mxCell>
        <mxCell id="lzKRI8cVJowjACNpVGW9-33" value="&lt;span style=&quot;font-size: 11px;&quot;&gt;Yes&lt;/span&gt;" style="text;html=1;align=center;verticalAlign=middle;whiteSpace=wrap;rounded=0;" vertex="1" parent="1">
          <mxGeometry x="395" y="470" width="60" height="30" as="geometry" />
        </mxCell>
        <mxCell id="lzKRI8cVJowjACNpVGW9-46" style="edgeStyle=orthogonalEdgeStyle;rounded=0;orthogonalLoop=1;jettySize=auto;html=1;exitX=0.5;exitY=1;exitDx=0;exitDy=0;entryX=0.5;entryY=0;entryDx=0;entryDy=0;" edge="1" parent="1" source="lzKRI8cVJowjACNpVGW9-44" target="lzKRI8cVJowjACNpVGW9-31">
          <mxGeometry relative="1" as="geometry" />
        </mxCell>
        <mxCell id="lzKRI8cVJowjACNpVGW9-48" style="edgeStyle=orthogonalEdgeStyle;rounded=0;orthogonalLoop=1;jettySize=auto;html=1;exitX=1;exitY=0.5;exitDx=0;exitDy=0;entryX=0.5;entryY=1;entryDx=0;entryDy=0;" edge="1" parent="1" source="lzKRI8cVJowjACNpVGW9-44" target="lzKRI8cVJowjACNpVGW9-49">
          <mxGeometry relative="1" as="geometry">
            <mxPoint x="810" y="550" as="targetPoint" />
          </mxGeometry>
        </mxCell>
        <mxCell id="lzKRI8cVJowjACNpVGW9-44" value="&lt;span style=&quot;font-size: 11px;&quot;&gt;Does the system have&lt;/span&gt;&lt;div&gt;&lt;span style=&quot;font-size: 11px;&quot;&gt;auto-off enabled?&lt;/span&gt;&lt;/div&gt;" style="rhombus;whiteSpace=wrap;html=1;fillColor=#fff2cc;strokeColor=#d6b656;" vertex="1" parent="1">
          <mxGeometry x="314.5" y="510" width="170" height="80" as="geometry" />
        </mxCell>
        <mxCell id="lzKRI8cVJowjACNpVGW9-47" value="&lt;span style=&quot;font-size: 11px;&quot;&gt;Yes&lt;/span&gt;" style="text;html=1;align=center;verticalAlign=middle;whiteSpace=wrap;rounded=0;" vertex="1" parent="1">
          <mxGeometry x="403" y="603" width="60" height="30" as="geometry" />
        </mxCell>
        <mxCell id="lzKRI8cVJowjACNpVGW9-51" style="edgeStyle=orthogonalEdgeStyle;rounded=0;orthogonalLoop=1;jettySize=auto;html=1;exitX=0.5;exitY=0;exitDx=0;exitDy=0;entryX=1;entryY=0.5;entryDx=0;entryDy=0;" edge="1" parent="1" source="lzKRI8cVJowjACNpVGW9-49" target="lzKRI8cVJowjACNpVGW9-6">
          <mxGeometry relative="1" as="geometry" />
        </mxCell>
        <mxCell id="lzKRI8cVJowjACNpVGW9-49" value="" style="ellipse;whiteSpace=wrap;html=1;aspect=fixed;" vertex="1" parent="1">
          <mxGeometry x="790" y="390" width="20" height="20" as="geometry" />
        </mxCell>
        <mxCell id="lzKRI8cVJowjACNpVGW9-53" value="&lt;span style=&quot;font-size: 11px;&quot;&gt;No&lt;/span&gt;" style="text;html=1;align=center;verticalAlign=middle;whiteSpace=wrap;rounded=0;" vertex="1" parent="1">
          <mxGeometry x="590" y="520" width="60" height="30" as="geometry" />
        </mxCell>
      </root>
    </mxGraphModel>
  </diagram>
</mxfile>
